<svg width="21" height="20" viewBox="0 0 21 20" fill="none" xmlns="http://www.w3.org/2000/svg">
<path d="M13.1028 5.90683L11.3841 2.915C11.065 2.35949 10.2645 2.35683 9.94169 2.91021L8.12807 6.01927C7.88785 6.43107 7.48279 6.72028 7.0153 6.81378L4.5372 7.3094C3.89538 7.43777 3.64529 8.222 4.09431 8.69823L5.88667 10.5992C6.26994 11.0057 6.42404 11.5772 6.29709 12.1213L5.48581 15.5982C5.31904 16.3129 6.09079 16.8786 6.72218 16.5045L9.81736 14.6703C10.3413 14.3598 10.9928 14.3598 11.5167 14.6703L14.6119 16.5045C15.2433 16.8786 16.015 16.3129 15.8483 15.5982L15.0299 12.0908C14.9068 11.5636 15.0476 11.0095 15.4073 10.6049L17.2018 8.58597C17.6294 8.10494 17.3735 7.3414 16.7424 7.21518L14.2211 6.71092C13.7499 6.61667 13.3422 6.32356 13.1028 5.90683Z" stroke="black" stroke-width="1.67" stroke-miterlimit="10"/>
</svg>
