<svg width="16" height="16" viewBox="0 0 16 16" fill="none" xmlns="http://www.w3.org/2000/svg">
<g clip-path="url(#clip0_1_14595)">
<path d="M7.24584 0.976438C7.66525 0.563355 8.33479 0.563355 8.7542 0.976438L9.37626 1.5891C9.63258 1.84156 9.99635 1.94931 10.3473 1.87672L11.199 1.70056C11.7732 1.58179 12.3364 1.94694 12.4679 2.52318L12.6628 3.37784C12.7431 3.73001 12.9914 4.01905 13.3256 4.14937L14.1364 4.46565C14.6832 4.6789 14.9613 5.29327 14.763 5.84972L14.469 6.67502C14.3478 7.01509 14.4018 7.39365 14.613 7.68551L15.1256 8.39381C15.4713 8.87137 15.376 9.53991 14.911 9.89989L14.2213 10.4338C13.9371 10.6538 13.7796 11.0017 13.8009 11.3624L13.8525 12.2379C13.8873 12.8281 13.4489 13.3386 12.8647 13.3878L11.9984 13.4608C11.6414 13.4909 11.3224 13.6977 11.147 14.0128L10.7213 14.7774C10.4342 15.2929 9.79179 15.4832 9.274 15.2061L8.50603 14.795C8.18959 14.6256 7.81045 14.6256 7.49401 14.795L6.72604 15.2061C6.20825 15.4832 5.56583 15.2929 5.27877 14.7774L4.85303 14.0128C4.6776 13.6977 4.35865 13.4909 4.00166 13.4608L3.13529 13.3878C2.55116 13.3386 2.1127 12.8281 2.14753 12.2379L2.19917 11.3624C2.22046 11.0017 2.06296 10.6538 1.77876 10.4338L1.08906 9.89989C0.624046 9.53991 0.52876 8.87137 0.874402 8.39381L1.38705 7.68551C1.59828 7.39365 1.65224 7.01509 1.53107 6.67502L1.23701 5.84972C1.03875 5.29327 1.31689 4.6789 1.86361 4.46565L2.67449 4.14937C3.00862 4.01905 3.2569 3.73001 3.33723 3.37784L3.53217 2.52318C3.66361 1.94694 4.22687 1.58179 4.80109 1.70056L5.65275 1.87672C6.00369 1.94931 6.36746 1.84156 6.62379 1.5891L7.24584 0.976438Z" fill="#574EFA"/>
<path fill-rule="evenodd" clip-rule="evenodd" d="M11.1381 6.19522C11.3984 6.45557 11.3984 6.87768 11.1381 7.13803L7.70713 10.569C7.3166 10.9595 6.68344 10.9595 6.29291 10.569L4.86195 9.13803C4.6016 8.87768 4.6016 8.45557 4.86195 8.19522C5.1223 7.93487 5.54441 7.93487 5.80476 8.19522L7.00002 9.39048L10.1953 6.19522C10.4556 5.93487 10.8777 5.93487 11.1381 6.19522Z" fill="white"/>
</g>
<defs>
<clipPath id="clip0_1_14595">
<rect width="16" height="16" fill="white"/>
</clipPath>
</defs>
</svg>
