<svg width="32" height="32" viewBox="0 0 32 32" fill="none" xmlns="http://www.w3.org/2000/svg">
<path d="M16.6666 24C16.6666 24.3682 16.3682 24.6666 16 24.6666C15.6318 24.6666 15.3333 24.3682 15.3333 24C15.3333 23.6318 15.6318 23.3333 16 23.3333C16.3682 23.3333 16.6666 23.6318 16.6666 24Z" stroke="black"/>
<path d="M12.6667 19.4169C13.6021 18.7354 14.7541 18.3333 16 18.3333C17.2459 18.3333 18.398 18.7354 19.3334 19.4169" stroke="black" stroke-width="1.5" stroke-linecap="round" stroke-linejoin="round"/>
<path d="M22.2837 14.9701C20.5024 13.7282 18.3364 13 16.0003 13C13.6641 13 11.4981 13.7282 9.7168 14.9701" stroke="black" stroke-width="1.5" stroke-linecap="round" stroke-linejoin="round"/>
<path d="M6.66669 10.5943C9.3123 8.74892 12.5298 7.66669 16 7.66669C19.4703 7.66669 22.6877 8.74892 25.3334 10.5943" stroke="black" stroke-width="1.5" stroke-linecap="round" stroke-linejoin="round"/>
</svg>
