<svg width="33" height="32" viewBox="0 0 33 32" fill="none" xmlns="http://www.w3.org/2000/svg">
<path d="M23.4722 9.02775L22.7311 8.91261C22.6944 9.14907 22.7727 9.38887 22.9419 9.55808C23.1111 9.72729 23.3509 9.8056 23.5873 9.76886L23.4722 9.02775ZM22.0903 12.8846L22.6504 12.3858C22.5131 12.2316 22.3183 12.1408 22.1119 12.1349C21.9056 12.1289 21.7059 12.2083 21.5599 12.3542L22.0903 12.8846ZM13.3846 21.5903L12.8542 21.0599C12.7083 21.2059 12.6289 21.4056 12.6349 21.6119C12.6408 21.8183 12.7316 22.0131 12.8858 22.1504L13.3846 21.5903ZM9.52775 22.9722L10.2689 23.0873C10.3056 22.8509 10.2273 22.6111 10.0581 22.4419C9.88887 22.2727 9.64907 22.1944 9.41261 22.2311L9.52775 22.9722ZM10.9097 19.1154L10.3496 19.6142C10.4869 19.7684 10.6817 19.8591 10.888 19.8651C11.0944 19.8711 11.294 19.7917 11.44 19.6457L10.9097 19.1154ZM19.6154 10.4097L20.1457 10.94C20.2917 10.794 20.3711 10.5944 20.3651 10.388C20.3591 10.1817 20.2684 9.9869 20.1142 9.84961L19.6154 10.4097ZM24.2133 9.1429C24.2375 8.98725 24.25 8.82815 24.25 8.66665H22.75C22.75 8.75077 22.7435 8.83288 22.7311 8.91261L24.2133 9.1429ZM23.8333 8.24998C23.6718 8.24998 23.5127 8.26246 23.3571 8.28665L23.5873 9.76886C23.6671 9.75648 23.7492 9.74998 23.8333 9.74998V8.24998ZM26.9166 11.3333C26.9166 9.63044 25.5362 8.24998 23.8333 8.24998V9.74998C24.7078 9.74998 25.4166 10.4589 25.4166 11.3333H26.9166ZM23.8333 14.4166C25.5362 14.4166 26.9166 13.0362 26.9166 11.3333H25.4166C25.4166 12.2078 24.7078 12.9166 23.8333 12.9166V14.4166ZM21.5302 13.3834C22.0938 14.0163 22.9173 14.4166 23.8333 14.4166V12.9166C23.3631 12.9166 22.9414 12.7126 22.6504 12.3858L21.5302 13.3834ZM13.9149 22.1206L22.6206 13.4149L21.5599 12.3542L12.8542 21.0599L13.9149 22.1206ZM14.9166 23.3333C14.9166 22.4173 14.5163 21.5938 13.8834 21.0302L12.8858 22.1504C13.2126 22.4414 13.4166 22.8631 13.4166 23.3333H14.9166ZM11.8333 26.4166C13.5362 26.4166 14.9166 25.0362 14.9166 23.3333H13.4166C13.4166 24.2078 12.7078 24.9166 11.8333 24.9166V26.4166ZM8.74998 23.3333C8.74998 25.0362 10.1304 26.4166 11.8333 26.4166V24.9166C10.9589 24.9166 10.25 24.2078 10.25 23.3333H8.74998ZM8.78665 22.8571C8.76246 23.0127 8.74998 23.1718 8.74998 23.3333H10.25C10.25 23.2492 10.2565 23.1671 10.2689 23.0873L8.78665 22.8571ZM9.16665 23.75C9.32815 23.75 9.48725 23.7375 9.6429 23.7133L9.41261 22.2311C9.33288 22.2435 9.25077 22.25 9.16665 22.25V23.75ZM6.08331 20.6666C6.08331 22.3695 7.46377 23.75 9.16665 23.75V22.25C8.2922 22.25 7.58331 21.5411 7.58331 20.6666H6.08331ZM9.16665 17.5833C7.46377 17.5833 6.08331 18.9638 6.08331 20.6666H7.58331C7.58331 19.7922 8.2922 19.0833 9.16665 19.0833V17.5833ZM11.4698 18.6166C10.9061 17.9837 10.0827 17.5833 9.16665 17.5833V19.0833C9.6369 19.0833 10.0585 19.2874 10.3496 19.6142L11.4698 18.6166ZM19.0851 9.87936L10.3794 18.5851L11.44 19.6457L20.1457 10.94L19.0851 9.87936ZM18.0833 8.66665C18.0833 9.58265 18.4837 10.4061 19.1166 10.9698L20.1142 9.84961C19.7874 9.55853 19.5833 9.1369 19.5833 8.66665H18.0833ZM21.1666 5.58331C19.4638 5.58331 18.0833 6.96377 18.0833 8.66665H19.5833C19.5833 7.7922 20.2922 7.08331 21.1666 7.08331V5.58331ZM24.25 8.66665C24.25 6.96377 22.8695 5.58331 21.1666 5.58331V7.08331C22.0411 7.08331 22.75 7.7922 22.75 8.66665H24.25Z" fill="#141414"/>
</svg>
