<svg width="20" height="20" viewBox="0 0 20 20" fill="none" xmlns="http://www.w3.org/2000/svg">
<path d="M7.50004 17.0134V11.18C7.50004 10.7198 7.87314 10.3467 8.33337 10.3467H11.6667C12.1269 10.3467 12.5 10.7198 12.5 11.18V17.0134M3.33337 15.3467V9.04749C3.33337 8.04772 3.78213 7.10074 4.55591 6.46764L8.94464 2.87686C9.55859 2.37454 10.4415 2.37454 11.0554 2.87686L15.4442 6.46764C16.218 7.10074 16.6667 8.04772 16.6667 9.0475V15.3467C16.6667 16.2672 15.9205 17.0134 15 17.0134H13.3334H6.66671H5.00004C4.07957 17.0134 3.33337 16.2672 3.33337 15.3467Z" stroke="white" stroke-width="2" stroke-linecap="round"/>
</svg>
