<svg width="25" height="24" viewBox="0 0 25 24" fill="none" xmlns="http://www.w3.org/2000/svg">
<path d="M14.3318 3.0782L15.9834 6.56394C16.2541 7.13457 16.7767 7.53005 17.3815 7.62165L21.075 8.18069C22.5978 8.41111 23.2059 10.3599 22.1039 11.4787L19.4304 14.1915C18.9929 14.6358 18.7932 15.2759 18.8965 15.9032L19.5274 19.7343C19.7878 21.3139 18.1956 22.5182 16.834 21.7726L13.5303 19.9648C12.9895 19.6686 12.3432 19.6686 11.8023 19.9648L8.49861 21.7738C7.13698 22.5194 5.54481 21.3137 5.80522 19.7355L6.43609 15.9044C6.53982 15.2767 6.34 14.6361 5.90218 14.1915L3.22941 11.4784C2.12734 10.3596 2.73548 8.4108 4.25826 8.18038L7.95178 7.62134C8.55656 7.52973 9.07921 7.13422 9.3499 6.56363L11.0008 3.07825C11.6826 1.64059 13.65 1.64054 14.3318 3.0782Z" fill="#DAE0E6"/>
</svg>
