<svg width="25" height="24" viewBox="0 0 25 24" fill="none" xmlns="http://www.w3.org/2000/svg">
<path d="M13.9985 3.0782L15.6501 6.56394C15.9208 7.13457 16.4435 7.53005 17.0482 7.62165L20.7418 8.18069C22.2645 8.41111 22.8726 10.3599 21.7706 11.4787L19.0972 14.1915C18.6597 14.6358 18.46 15.2759 18.5632 15.9032L19.1941 19.7343C19.4545 21.3139 17.8624 22.5182 16.5007 21.7726L13.1971 19.9648C12.6562 19.6686 12.0099 19.6686 11.469 19.9648L8.16535 21.7738C6.80373 22.5194 5.21156 21.3137 5.47197 19.7355L6.10284 15.9044C6.20657 15.2767 6.00674 14.6361 5.56893 14.1915L2.89616 11.4784C1.79409 10.3596 2.40223 8.4108 3.92501 8.18038L7.61853 7.62134C8.22331 7.52973 8.74596 7.13422 9.01665 6.56363L10.6675 3.07825C11.3494 1.64059 13.3168 1.64054 13.9985 3.0782Z" fill="#DAE0E6"/>
</svg>
