<svg width="22" height="22" viewBox="0 0 22 22" fill="none" xmlns="http://www.w3.org/2000/svg">
<g clip-path="url(#clip0_244_526)">
<path d="M13.9147 5.02849L20.729 10.9619C20.9254 11.1329 21.0236 11.2184 21.0596 11.3201C21.0911 11.4094 21.0911 11.5071 21.0596 11.5964C21.0236 11.6981 20.9254 11.7836 20.729 11.9546L13.9147 17.888M8.26895 9.03496V5.52488C8.26895 5.07258 8.26895 4.84643 8.35939 4.73371C8.43798 4.63575 8.55678 4.58024 8.68115 4.58338C8.82426 4.58698 8.99329 4.73416 9.33134 5.02851L16.1457 10.9619C16.3421 11.1329 16.4403 11.2184 16.4763 11.3201C16.5078 11.4094 16.5078 11.5071 16.4763 11.5964C16.4403 11.6981 16.3421 11.7836 16.1457 11.9546L9.33134 17.888C8.99329 18.1823 8.82426 18.3295 8.68115 18.3331C8.55678 18.3363 8.43798 18.2808 8.35939 18.1828C8.26895 18.0701 8.26895 17.8439 8.26895 17.3916V13.9675C7.10925 14.0474 5.97358 14.3507 4.92301 14.8626C3.7314 15.4433 2.67743 16.2788 1.83327 17.3118V16.8117C1.83427 14.8708 2.53864 12.9983 3.81201 11.5513C4.97999 10.2241 6.55169 9.34014 8.26895 9.03496Z" stroke="#272D37" stroke-width="2" stroke-linecap="round" stroke-linejoin="round"/>
</g>
<defs>
<clipPath id="clip0_244_526">
<rect width="22" height="22" fill="white" transform="matrix(-1 0 0 1 22 0)"/>
</clipPath>
</defs>
</svg>
