<svg width="20" height="20" viewBox="0 0 20 20" fill="none" xmlns="http://www.w3.org/2000/svg">
<path d="M12.4362 5.90683L10.7175 2.915C10.3983 2.35949 9.59787 2.35683 9.27507 2.91021L7.46145 6.01927C7.22123 6.43107 6.81616 6.72028 6.34868 6.81378L3.87058 7.3094C3.22876 7.43777 2.97867 8.222 3.42768 8.69823L5.22004 10.5992C5.60331 11.0057 5.75741 11.5772 5.63046 12.1213L4.81918 15.5982C4.65241 16.3129 5.42416 16.8786 6.05555 16.5045L9.15073 14.6703C9.67464 14.3598 10.3262 14.3598 10.8501 14.6703L13.9453 16.5045C14.5766 16.8786 15.3484 16.3129 15.1816 15.5982L14.3632 12.0908C14.2402 11.5636 14.3809 11.0095 14.7406 10.6049L16.5352 8.58597C16.9628 8.10494 16.7069 7.3414 16.0758 7.21518L13.5545 6.71092C13.0832 6.61667 12.6756 6.32356 12.4362 5.90683Z" stroke="#EEA23E" stroke-width="1.67" stroke-miterlimit="10"/>
</svg>
