<svg width="21" height="20" viewBox="0 0 21 20" fill="none" xmlns="http://www.w3.org/2000/svg">
<path d="M12.7695 5.90683L11.0508 2.915C10.7317 2.35949 9.93118 2.35683 9.60838 2.91021L7.79476 6.01927C7.55454 6.43107 7.14948 6.72028 6.68199 6.81378L4.20389 7.3094C3.56207 7.43777 3.31198 8.222 3.761 8.69823L5.55335 10.5992C5.93662 11.0057 6.09072 11.5772 5.96377 12.1213L5.1525 15.5982C4.98573 16.3129 5.75747 16.8786 6.38887 16.5045L9.48404 14.6703C10.008 14.3598 10.6595 14.3598 11.1834 14.6703L14.2786 16.5045C14.91 16.8786 15.6817 16.3129 15.5149 15.5982L14.6966 12.0908C14.5735 11.5636 14.7143 11.0095 15.0739 10.6049L16.8685 8.58597C17.2961 8.10494 17.0402 7.3414 16.4091 7.21518L13.8878 6.71092C13.4165 6.61667 13.0089 6.32356 12.7695 5.90683Z" stroke="black" stroke-width="1.67" stroke-miterlimit="10"/>
</svg>
