<svg width="52" height="18" viewBox="0 0 52 18" fill="none" xmlns="http://www.w3.org/2000/svg">
<path d="M8.24813 4.81545V7.03874H0.599426V4.81545H8.24813ZM2.48778 1.89341H5.62349V13.3434C5.62349 13.7298 5.68701 14.0262 5.81406 14.2327C5.94688 14.4338 6.12012 14.5715 6.33379 14.6456C6.54745 14.7197 6.78422 14.7567 7.04408 14.7567C7.24043 14.7567 7.41945 14.7435 7.58114 14.717C7.74861 14.6906 7.87565 14.6667 7.96228 14.6456L8.49067 16.8927C8.3232 16.9456 8.08355 17.0039 7.77171 17.0674C7.46564 17.1309 7.09028 17.168 6.64563 17.1785C5.86026 17.1997 5.15284 17.0912 4.52339 16.853C3.89394 16.6095 3.39442 16.2336 3.02484 15.7255C2.66102 15.2173 2.48201 14.5821 2.48778 13.8198V1.89341Z" fill="#574EFA"/>
<path d="M16.3958 17.25C15.0965 17.25 13.9704 16.988 13.0176 16.4639C12.0647 15.9398 11.3256 15.2067 10.8001 14.2644C10.2803 13.3222 10.0205 12.2211 10.0205 10.9613C10.0205 9.7014 10.2803 8.59769 10.8001 7.65014C11.3256 6.7026 12.0647 5.96679 13.0176 5.44273C13.9704 4.91867 15.0965 4.65664 16.3958 4.65664C17.6951 4.65664 18.8212 4.91867 19.7741 5.44273C20.7269 5.96679 21.4632 6.7026 21.9829 7.65014C22.5084 8.59769 22.7712 9.7014 22.7712 10.9613C22.7712 12.2211 22.5084 13.3222 21.9829 14.2644C21.4632 15.2067 20.7269 15.9398 19.7741 16.4639C18.8212 16.988 17.6951 17.25 16.3958 17.25ZM16.4131 14.9473C17.1177 14.9473 17.7067 14.77 18.1802 14.4153C18.6538 14.0553 19.006 13.5736 19.237 12.9702C19.4738 12.3667 19.5922 11.6944 19.5922 10.9533C19.5922 10.2069 19.4738 9.532 19.237 8.92854C19.006 8.31978 18.6538 7.83542 18.1802 7.47546C17.7067 7.1155 17.1177 6.93552 16.4131 6.93552C15.6913 6.93552 15.0907 7.1155 14.6114 7.47546C14.1379 7.83542 13.7827 8.31978 13.546 8.92854C13.315 9.532 13.1995 10.2069 13.1995 10.9533C13.1995 11.6944 13.315 12.3667 13.546 12.9702C13.7827 13.5736 14.1379 14.0553 14.6114 14.4153C15.0907 14.77 15.6913 14.9473 16.4131 14.9473Z" fill="#574EFA"/>
<path d="M31.941 4.81545V7.03874H24.2923V4.81545H31.941ZM26.1807 1.89341H29.3164V13.3434C29.3164 13.7298 29.3799 14.0262 29.5069 14.2327C29.6398 14.4338 29.813 14.5715 30.0267 14.6456C30.2403 14.7197 30.4771 14.7567 30.737 14.7567C30.9333 14.7567 31.1123 14.7435 31.274 14.717C31.4415 14.6906 31.5685 14.6667 31.6552 14.6456L32.1836 16.8927C32.0161 16.9456 31.7764 17.0039 31.4646 17.0674C31.1585 17.1309 30.7832 17.168 30.3385 17.1785C29.5531 17.1997 28.8457 17.0912 28.2163 16.853C27.5868 16.6095 27.0873 16.2336 26.7177 15.7255C26.3539 15.2173 26.1749 14.5821 26.1807 13.8198V1.89341Z" fill="#574EFA"/>
<path d="M40.1753 17.25C38.8413 17.25 37.6893 16.9959 36.7191 16.4877C35.7547 15.9743 35.0127 15.249 34.4929 14.3121C33.9732 13.3698 33.7133 12.2608 33.7133 10.9851C33.7133 9.73051 33.9732 8.62945 34.4929 7.68191C35.0184 6.72907 35.7518 5.98797 36.6931 5.45861C37.6344 4.92397 38.7403 4.65664 40.0107 4.65664C40.8308 4.65664 41.6046 4.77839 42.3322 5.0219C43.0656 5.26011 43.7124 5.63066 44.2725 6.13354C44.8385 6.63643 45.2831 7.27695 45.6065 8.0551C45.9299 8.82796 46.0916 9.74904 46.0916 10.8183V11.6997H35.1859V9.76227H43.0858C43.08 9.21174 42.9501 8.72209 42.696 8.29331C42.4419 7.85924 42.0868 7.51781 41.6306 7.26901C41.1801 7.02021 40.6546 6.89581 40.0541 6.89581C39.413 6.89581 38.85 7.03874 38.3649 7.32459C37.8798 7.60515 37.5016 7.9757 37.2302 8.43624C36.9645 8.89148 36.8288 9.39172 36.8231 9.93696V11.6283C36.8231 12.3376 36.9645 12.9463 37.2475 13.4545C37.5305 13.9574 37.926 14.3438 38.4342 14.6138C38.9424 14.8785 39.5372 15.0108 40.2186 15.0108C40.6748 15.0108 41.0877 14.9526 41.4573 14.8361C41.8269 14.7144 42.1474 14.5371 42.4188 14.3041C42.6902 14.0712 42.8952 13.7827 43.0338 13.4386L45.9617 13.7404C45.7769 14.4497 45.4246 15.0691 44.9049 15.5984C44.3909 16.1225 43.7326 16.5301 42.9299 16.8212C42.1272 17.1071 41.209 17.25 40.1753 17.25Z" fill="#574EFA"/>
<path d="M51.7446 0.75V17.0118H48.6089V0.75H51.7446Z" fill="#574EFA"/>
</svg>
